<mxfile host="app.diagrams.net" agent="Mozilla/5.0 (Windows NT 10.0; Win64; x64) AppleWebKit/537.36 (KHTML, like Gecko) Chrome/129.0.0.0 Safari/537.36" version="24.7.16">
  <diagram name="第 1 页" id="7j_t2oZW2KQ4Nqib1sM3">
    <mxGraphModel dx="1434" dy="738" grid="1" gridSize="10" guides="1" tooltips="1" connect="1" arrows="1" fold="1" page="1" pageScale="1" pageWidth="827" pageHeight="1169" math="0" shadow="0">
      <root>
        <mxCell id="0" />
        <mxCell id="1" parent="0" />
        <mxCell id="7CEF7cnWaZQUFB90jDmR-3" value="" style="edgeStyle=orthogonalEdgeStyle;rounded=0;orthogonalLoop=1;jettySize=auto;html=1;" edge="1" parent="1" source="7CEF7cnWaZQUFB90jDmR-1" target="7CEF7cnWaZQUFB90jDmR-2">
          <mxGeometry relative="1" as="geometry" />
        </mxCell>
        <mxCell id="7CEF7cnWaZQUFB90jDmR-1" value="&lt;font style=&quot;vertical-align: inherit; font-size: 24px;&quot;&gt;&lt;font style=&quot;vertical-align: inherit; font-size: 24px;&quot;&gt;&lt;font style=&quot;vertical-align: inherit;&quot;&gt;&lt;font style=&quot;vertical-align: inherit;&quot;&gt;&lt;font style=&quot;vertical-align: inherit;&quot;&gt;&lt;font style=&quot;vertical-align: inherit;&quot;&gt;人資課通知&lt;/font&gt;&lt;/font&gt;&lt;/font&gt;&lt;/font&gt;&lt;/font&gt;&lt;/font&gt;&lt;div&gt;&lt;font style=&quot;vertical-align: inherit; font-size: 24px;&quot;&gt;&lt;font style=&quot;vertical-align: inherit; font-size: 24px;&quot;&gt;&lt;font style=&quot;vertical-align: inherit;&quot;&gt;&lt;font style=&quot;vertical-align: inherit;&quot;&gt;人員離職&lt;/font&gt;&lt;/font&gt;&lt;/font&gt;&lt;/font&gt;&lt;/div&gt;" style="ellipse;whiteSpace=wrap;html=1;fontSize=24;" vertex="1" parent="1">
          <mxGeometry x="297" y="70" width="234" height="140" as="geometry" />
        </mxCell>
        <mxCell id="7CEF7cnWaZQUFB90jDmR-5" value="" style="edgeStyle=orthogonalEdgeStyle;rounded=0;orthogonalLoop=1;jettySize=auto;html=1;" edge="1" parent="1" source="7CEF7cnWaZQUFB90jDmR-2" target="7CEF7cnWaZQUFB90jDmR-4">
          <mxGeometry relative="1" as="geometry" />
        </mxCell>
        <mxCell id="7CEF7cnWaZQUFB90jDmR-2" value="&lt;font style=&quot;vertical-align: inherit;&quot;&gt;&lt;font style=&quot;vertical-align: inherit;&quot;&gt;轉移工作角色&lt;/font&gt;&lt;/font&gt;" style="whiteSpace=wrap;html=1;fontSize=24;" vertex="1" parent="1">
          <mxGeometry x="267" y="280" width="294" height="70" as="geometry" />
        </mxCell>
        <mxCell id="7CEF7cnWaZQUFB90jDmR-7" value="" style="edgeStyle=orthogonalEdgeStyle;rounded=0;orthogonalLoop=1;jettySize=auto;html=1;" edge="1" parent="1" source="7CEF7cnWaZQUFB90jDmR-4" target="7CEF7cnWaZQUFB90jDmR-6">
          <mxGeometry relative="1" as="geometry" />
        </mxCell>
        <mxCell id="7CEF7cnWaZQUFB90jDmR-4" value="&lt;font style=&quot;vertical-align: inherit;&quot;&gt;&lt;font style=&quot;vertical-align: inherit;&quot;&gt;&lt;font style=&quot;vertical-align: inherit;&quot;&gt;&lt;font style=&quot;vertical-align: inherit;&quot;&gt;禁用離職人員權限&lt;/font&gt;&lt;/font&gt;&lt;/font&gt;&lt;/font&gt;" style="whiteSpace=wrap;html=1;fontSize=24;" vertex="1" parent="1">
          <mxGeometry x="267" y="430" width="294" height="70" as="geometry" />
        </mxCell>
        <mxCell id="7CEF7cnWaZQUFB90jDmR-6" value="&lt;div&gt;&lt;font style=&quot;vertical-align: inherit;&quot;&gt;&lt;font style=&quot;vertical-align: inherit;&quot;&gt;&lt;font style=&quot;vertical-align: inherit;&quot;&gt;&lt;font style=&quot;vertical-align: inherit;&quot;&gt;END&lt;/font&gt;&lt;/font&gt;&lt;/font&gt;&lt;/font&gt;&lt;/div&gt;" style="ellipse;whiteSpace=wrap;html=1;fontSize=24;" vertex="1" parent="1">
          <mxGeometry x="374" y="575" width="80" height="80" as="geometry" />
        </mxCell>
      </root>
    </mxGraphModel>
  </diagram>
</mxfile>
